<svg xmlns="http://www.w3.org/2000/svg" version="1.1" xmlns:xlink="http://www.w3.org/1999/xlink" xmlns:svgjs="http://svgjs.dev/svgjs" width="100%" height="100%" viewBox="0 0 1000 600"><rect width="1000" height="600" x="0" y="0" fill="#ffffff"/><g><rect width="333.3333333333333" height="333.3333333333333" rx="13.333333333333334" ry="13.333333333333334" y="163.42921082300927" fill="#161b21" transform="matrix(0.8852250948331938,0,0,0.8852250948331936,0,7.790822625121052)" x="141.2069854736328"/><path d="M305.5774266806468 405.0958778979898Q291.3438510511464 405.0958778979898 279.9387423736621 395.3635184932032Q268.56404731931775 385.60074546527665 262.1163592136466 369.1773889696992Q255.63825748483552 352.75403247412186 255.63825748483552 333.92799975048774L255.63825748483552 333.92799975048774Q255.63825748483552 313.33797688473607 262.9679406615654 295.18104387018104Q270.3280374614353 276.99369723248606 282.919277441378 266.0447929021011Q295.5105174213206 255.09588857171622 310.3827791367602 255.09588857171622L310.3827791367602 255.09588857171622Q324.4034594042809 255.09588857171622 335.7781544586253 264.8586615996428Q347.18326313610953 274.5910210044294 353.6309512417807 291.0143775000068Q360.1090529705918 307.4377339955842 360.1090529705918 326.476662081198L360.1090529705918 326.476662081198Q360.1090529705918 347.2795803089294 352.7489561707219 365.3452724540645Q345.41927299399197 383.4109645991997 332.8280330140493 394.2686280601647Q320.23679303410665 405.0958778979898 305.5774266806468 405.0958778979898L305.5774266806468 405.0958778979898ZM305.5774266806468 391.5314019775685Q316.31343564905205 391.5314019775685 325.8328996918589 382.7722785132606Q335.35236373466586 374.01315504895257 341.1613657543978 359.1104797103731Q346.97036777412984 344.23821799493356 346.97036777412984 326.93286642829736L346.97036777412984 326.93286642829736Q346.97036777412984 311.60440036575847 342.1346016948765 298.2528198073168Q337.3292492387631 284.8708256257352 328.9959164984146 276.78080187050637Q320.692997381206 268.6907781152775 310.3827791367602 268.6907781152775L310.3827791367602 268.6907781152775Q299.43387480637523 268.6907781152775 289.91441076356836 277.44990157958546Q280.3949467207615 286.2090250438934 274.7075991935893 301.20294125189275Q268.98983804327713 316.19685745989216 268.98983804327713 333.50220902652836L268.98983804327713 333.50220902652836Q268.98983804327713 348.6177797270875 273.7039496299707 361.96936028552915Q278.41806121666417 375.3209408439708 286.75139395701274 383.4109645991997Q295.0543130742213 391.5314019775685 305.5774266806468 391.5314019775685L305.5774266806468 391.5314019775685Z " fill="#f4a950" transform="matrix(0.8852250948331938,0,0,0.8852250948331936,0,7.790822625121052)"/><path d="M584.8520695302169 363.21937957667507Q582.2741321240263 363.21937957667507 580.3256910612079 361.60067469371813Q578.3772499983894 359.98196981076126 577.7177776386662 357.40403240457067L577.7177776386662 357.40403240457067L558.2933190431836 265.22778212508166L557.873654814269 261.78054024471055Q557.873654814269 259.2026028385199 559.7021918116832 257.25416177570145Q561.5307288090974 255.305720712883 564.3484743460965 255.305720712883L564.3484743460965 255.305720712883Q566.9264117522871 255.305720712883 568.7849247660523 256.92442559583986Q570.6134617634666 258.54313047879674 571.0331259923813 261.1510439013384L571.0331259923813 261.1510439013384L586.1410382333122 337.11026933490757L612.6997887203455 260.28173942715785Q613.3292850637176 258.3332983643394 615.2777261265361 256.8344975467867Q617.2261671893546 255.305720712883 619.5942724810877 255.305720712883L619.5942724810877 255.305720712883Q621.962377772821 255.305720712883 624.0307229010436 257.0443296612441Q626.0690920129152 258.7529625932541 626.5187322581811 261.1510439013384L626.5187322581811 261.1510439013384L645.0738863794832 338.1894059235455L668.1554189697941 260.70140365607256Q668.8148913295174 258.54313047879674 670.6434283269316 257.0443296612441Q672.4719653243459 255.51555282734034 674.6302385016218 255.51555282734034L674.6302385016218 255.51555282734034Q677.4479840386207 255.51555282734034 679.4863531504924 257.4639938901588Q681.554698278715 259.41243495297726 681.554698278715 262.2301804899763L681.554698278715 262.2301804899763Q681.554698278715 262.85967683334843 681.2249620988534 263.5191491930716Q680.8952259189919 264.1486455364437 680.8952259189919 264.3884536672522L680.8952259189919 264.3884536672522L651.0990656660449 358.0335287479428Q649.1806006195775 363.21937957667507 644.41441401976 363.21937957667507L644.41441401976 363.21937957667507Q642.2561408424841 363.21937957667507 640.4276038450698 361.81050680817555Q638.5990668476556 360.43161005602707 637.9395944879325 357.82369663348544L637.9395944879325 357.82369663348544L618.7249680069071 282.07430331437365L591.1170569475871 358.27333687875125Q590.2477524734065 360.43161005602707 588.5091435250454 361.81050680817555Q586.8005105930354 363.21937957667507 584.8520695302169 363.21937957667507L584.8520695302169 363.21937957667507ZM767.6458172389403 364.95798852503617Q764.4084074730265 364.95798852503617 762.6997745410165 362.8896433968134Q760.9611655926554 360.85127428494184 760.9611655926554 357.82369663348544L760.9611655926554 357.82369663348544L760.9611655926554 351.79851734692375Q755.145818420551 356.9543921593049 746.9323899403624 360.1018738761655Q738.7489374765249 363.21937957667507 730.5355089963363 363.21937957667507L730.5355089963363 363.21937957667507Q718.8748386357764 363.21937957667507 709.612249583301 357.40403240457067Q700.3196845144745 351.5587092161153 695.043905636689 340.8872473951403Q689.7381507425526 330.2157855741653 689.7381507425526 316.6066741507871L689.7381507425526 316.6066741507871Q689.7381507425526 301.91842613877094 695.8832340945186 287.7997224374248Q702.0582934628355 273.6510427197276 713.8088918724485 264.59828578170954Q725.5594902820613 255.51555282734034 741.5367069971728 255.51555282734034L741.5367069971728 255.51555282734034Q751.4587684093715 255.51555282734034 759.0127245298369 258.123466249882Q766.5666806503024 260.70140365607256 774.3604449015762 264.3884536672522L774.3604449015762 264.3884536672522L774.3604449015762 357.82369663348544Q774.3604449015762 360.85127428494184 772.4120038387578 362.8896433968134Q770.4635627759393 364.95798852503617 767.6458172389403 364.95798852503617L767.6458172389403 364.95798852503617ZM730.5355089963363 350.47957262747735Q738.9587695909822 350.47957262747735 747.3820301856282 346.49276245278725Q755.7753147639231 342.5059522780972 760.3316692492832 337.97957380908815L760.3316692492832 337.97957380908815L761.1709977071127 272.5719061310897Q757.7237558267416 271.07310531353704 752.2381448344989 269.6642325450375Q746.722557825905 268.25535977653806 741.9863472424387 268.25535977653806L741.9863472424387 268.25535977653806Q731.4048134705168 268.25535977653806 722.561888646956 274.52034719390815Q713.6889878070442 280.78533461127836 708.6230410437162 291.6666285467107Q703.5570942803882 302.5778984984941 703.5570942803882 316.18700992187235L703.5570942803882 316.18700992187235Q703.5570942803882 331.92441850617536 711.1110504008536 341.2169835750019Q718.6650065213191 350.47957262747735 730.5355089963363 350.47957262747735L730.5355089963363 350.47957262747735ZM818.1554047904652 405.0958744190966Q815.3676352698172 405.0958744190966 813.4191942069987 403.0575053072249Q811.4707531441803 400.9891601790023 811.4707531441803 398.2013906583543L811.4707531441803 398.2013906583543Q811.4707531441803 396.6726138244506 812.3400576183609 395.17381300689794L812.3400576183609 395.17381300689794L833.263317031396 349.4004360388395L791.3868221889745 265.8872544848048Q790.547493731145 263.728981307529 790.547493731145 262.2301804899763L790.547493731145 262.2301804899763Q790.547493731145 259.2026028385199 792.5858628430167 257.25416177570145Q794.6242319548884 255.305720712883 797.4419774918873 255.305720712883L797.4419774918873 255.305720712883Q799.6002506691631 255.305720712883 801.3388596175242 256.5946894159783Q803.0474925495342 257.9136341354246 803.9167970237148 259.83209918189203L803.9167970237148 259.83209918189203L840.6074410374041 333.45319534007905L874.4803395140945 259.41243495297726Q876.6386126913702 255.0958885984256 880.955159045922 255.0958885984256L880.955159045922 255.0958885984256Q883.7729045829209 255.0958885984256 885.7213456457395 257.0443296612441Q887.6697867085578 258.99277072406255 887.6697867085578 261.78054024471055L887.6697867085578 261.78054024471055Q887.6697867085578 263.728981307529 887.0103143488346 264.8081178961669L887.0103143488346 264.8081178961669L824.6302243222927 400.77932806454487Q822.2621190305596 405.0958744190966 818.1554047904652 405.0958744190966L818.1554047904652 405.0958744190966ZM938.1493982437318 363.21937957667507Q925.8592315397999 363.21937957667507 915.8172660621971 356.6546319957944Q905.7753005845942 350.05990839856264 900.0798574778939 338.72897421786445Q894.3544383548427 327.3980400371663 894.3544383548427 313.5790964993307L894.3544383548427 313.5790964993307Q894.3544383548427 298.9208245036656 900.9191859357235 285.52154519474476Q907.5139095329553 272.152241902175 919.174579893515 263.8488853729332Q930.8352502540748 255.51555282734034 944.8640259063677 255.51555282734034L944.8640259063677 255.51555282734034Q956.9443604958423 255.51555282734034 966.9863259734451 262.11027642457213Q976.9983154346969 268.7050000218038 982.7237345577481 280.035934202502Q988.4491536807992 291.36686838320014 988.4491536807992 304.94600379022734L988.4491536807992 304.94600379022734Q988.4491536807992 320.50355627642404 981.5546699200569 333.8728595689938Q974.6302101429637 347.2421628615636 963.0894438478082 355.24575922729485Q951.5486775526525 363.21937957667507 938.1493982437318 363.21937957667507L938.1493982437318 363.21937957667507ZM939.0187027179123 350.92921287274316Q948.3112677867389 350.92921287274316 956.4947202505765 344.664225455373Q964.7081487307651 338.39923803800286 969.6841674450399 328.0575123968895Q974.6302101429637 317.685810739425 974.6302101429637 306.0251403788653L974.6302101429637 306.0251403788653Q974.6302101429637 295.8932468522092 970.5234959028694 287.14025007770164Q966.4467576791261 278.4172293195451 959.4323698529796 273.1114744254087Q952.4179820268331 267.8356955476233 943.7848893177298 267.8356955476233L943.7848893177298 267.8356955476233Q934.2824921344459 267.8356955476233 926.1889677196615 274.19061101404657Q918.095443304877 280.57550249682095 913.2393286560065 291.03713220333856Q908.3832140071357 301.49876190985617 908.3832140071357 313.15943227041595L908.3832140071357 313.15943227041595Q908.3832140071357 324.3704623857099 912.5798562962832 332.9136270457601Q916.8064746017818 341.42681568945926 923.9107904769813 346.16302627292566Q931.045082368532 350.92921287274316 939.0187027179123 350.92921287274316L939.0187027179123 350.92921287274316Z " fill="#176ab8" transform="matrix(0.8852250948331938,0,0,0.8852250948331936,0,7.790822625121052)"/></g></svg>